# xmcd
#
# Track frame offsets:
#	150
#	19888
#	37302
#	52603
#	70470
#	88197
#	103432
#	122762
#	144316
#	160963
#
# Disc length: 2388 seconds
#
# Revision: 0
# Processed by: cddbd v1.5.2PL0 Copyright (c) Steve Scherf et al.
# Submitted via: FairStars CD Ripper 1.90
#
DISCID=8f09520a
DTITLE=Tony 'HOBO' Parks - Boog-A-Billy
DYEAR=2000
DGENRE=Country
TTITLE0=Leave My Trash Alone
TTITLE1=I'd Rather Have You
TTITLE2=Country Boy Sing
TTITLE3=Forty Seven Bottles Of Wine
TTITLE4=This Just Ain't Working Out
TTITLE5=You're Srill Number One
TTITLE6=Good Golly Mr. Wally
TTITLE7=Bottom Of The Bottle
TTITLE8=Take It All
TTITLE9=Another One Night Stand
EXTD=
EXTT0=
EXTT1=
EXTT2=
EXTT3=
EXTT4=
EXTT5=
EXTT6=
EXTT7=
EXTT8=
EXTT9=
PLAYORDER=
